<?xml version="1.0" encoding="utf-8"?>
<!-- Generator: Adobe Illustrator 25.4.1, SVG Export Plug-In . SVG Version: 6.00 Build 0)  -->
<svg version="1.1" id="Layer_1" xmlns="http://www.w3.org/2000/svg" xmlns:xlink="http://www.w3.org/1999/xlink" x="0px" y="0px"
	 viewBox="0 0 1373.9 201" style="enable-background:new 0 0 1373.9 201;" xml:space="preserve">
<style type="text/css">
	.st0{fill:url(#SVGID_1_);}
	.st1{fill:none;stroke:#000000;stroke-miterlimit:10;}
	.st2{opacity:0.79;fill:#FFFFFF;enable-background:new    ;}
	.st3{font-family:'Rockwell';}
	.st4{font-size:14px;}
	.st5{fill:#FFFFFF;}
	.st6{letter-spacing:-1;}
	.st7{enable-background:new    ;}
	.st8{fill:#EFEFEF;}
</style>
<g id="Capa_2">
	<g id="Capa_1-2">
		<g id="Capa_2-2">
			<g id="Capa_1-2-2">
				
					<linearGradient id="SVGID_1_" gradientUnits="userSpaceOnUse" x1="0.5" y1="-776.605" x2="1373.4" y2="-776.605" gradientTransform="matrix(1 0 0 -1 0 -676.11)">
					<stop  offset="0" style="stop-color:#D50153"/>
					<stop  offset="1" style="stop-color:#EF7747"/>
				</linearGradient>
				<polygon class="st0" points="1373.4,65.5 1372.4,200.5 0.5,200.5 1.5,0.5 832.1,130.5 				"/>
				<line class="st1" x1="1.5" y1="0.5" x2="832.1" y2="130.5"/>
				<line class="st1" x1="1373.4" y1="65.5" x2="832.1" y2="130.5"/>
				<line class="st1" x1="1.5" y1="0.5" x2="0.5" y2="200.5"/>
				<line class="st1" x1="0.5" y1="200.5" x2="1372.4" y2="200.5"/>
				<line class="st1" x1="1373.4" y1="65.5" x2="1372.4" y2="200.5"/>
			</g>
		</g>
	
		<text transform="matrix(1 0 0 1 40 183.605)" class="st5 st3 st4">© Reborn services. Todos los derechos reservados</text>
		<g class="st7">
			<path class="st8" d="M36.6,111.7H57l5.3,5.6v11.2l-5.3,5.6l5.5,11.7h2.7v4.1h-9.6v-4.1h2L52,134.2h-7.2v11.7h3.1v4.1H36.6v-4.1
				h3.6v-30.1h-3.6V111.7z M44.9,116.1v13.7H55l3-3v-7.7l-2.9-3H44.9z"/>
			<path class="st8" d="M72.2,116.8h24.3v10h-4.1v-5.9H80.5v10.5h11.9v4.1H80.5v10.5h11.9V140h4.1v10H72.2v-4.1h3.6v-25h-3.6V116.8z
				"/>
			<path class="st8" d="M104.7,116.8h20.4l5.3,5.6v7.1l-2.8,2.9l3.8,3.9v8l-5.3,5.6h-21.4v-4.1h3.6v-25h-3.6V116.8z M112.9,121.2
				v9.6H123l3-3v-3.6l-2.9-3H112.9z M112.9,134.9v10.7h11.1l3-3v-4.4l-3.2-3.3H112.9z"/>
			<path class="st8" d="M144.9,150l-5.3-5.6v-21.9l5.3-5.6h14.4l5.3,5.6v21.9l-5.3,5.6H144.9z M146.9,145.6h10.4l2.7-2.7v-19
				l-2.6-2.7h-10.4l-2.7,2.7v19L146.9,145.6z"/>
			<path class="st8" d="M172.7,116.8h20.4l5.3,5.6v10.2l-5.2,5.4l4.7,7.9h2.7v4.1h-9.1v-4.1h1.4l-4.6-7.7H181v7.7h3.1v4.1h-11.3
				v-4.1h3.6v-25h-3.6V116.8z M181,121.2v12.6h10.1l3-3v-6.6l-2.9-3H181z"/>
			<path class="st8" d="M216.6,145.9h3.6v4.1h-11.8v-4.1h3.6v-25h-3.6v-4.1H219l14.9,28.2v-24.1h-3.6v-4.1h11.8v4.1h-3.6V150h-7
				l-14.9-28.1V145.9z"/>
			<path class="st8" d="M290.1,123.8h-4.2v-4.5l-3.1-3.2H275l-2.7,2.7v7l2.5,2.5h10.6l5.2,5.4v10.6l-5.3,5.6h-12.9l-5.3-5.6v-6.4
				h4.2v4.5l3.1,3.2h8.8l2.6-2.7v-7.6l-2.4-2.5h-10.6l-5.2-5.5v-10l5.3-5.6h11.8l5.3,5.6V123.8z"/>
			<path class="st8" d="M298.2,116.8h24.3v10h-4.1v-5.9h-11.9v10.5h11.9v4.1h-11.9v10.5h11.9V140h4.1v10h-24.3v-4.1h3.6v-25h-3.6
				V116.8z"/>
			<path class="st8" d="M330.7,116.8h20.4l5.3,5.6v10.2l-5.2,5.4l4.7,7.9h2.7v4.1h-9.1v-4.1h1.4l-4.6-7.7h-7.5v7.7h3.1v4.1h-11.3
				v-4.1h3.6v-25h-3.6V116.8z M338.9,121.2v12.6H349l3-3v-6.6l-2.9-3H338.9z"/>
			<path class="st8" d="M363.2,120.9v-4.1h10.8v4.1h-3.3l9,25l9-25h-3.3v-4.1h10.8v4.1h-2.8L383,150h-6.5L366,120.9H363.2z"/>
			<path class="st8" d="M400.8,145.9h4.1v-25h-4.1v-4.1h12.9v4.1h-4.1v25h4.1v4.1h-12.9V145.9z"/>
			<path class="st8" d="M440.7,137.9h4.1v6.4l-5.3,5.6h-12.9l-5.3-5.6v-21.9l5.3-5.6h12.9l5.3,5.6v6.4h-4.1v-4.3l-3.2-3.3h-8.8
				l-2.7,2.7v19l2.6,2.7h8.8l3.3-3.3V137.9z"/>
			<path class="st8" d="M451.9,116.8h24.3v10h-4.1v-5.9h-11.9v10.5h11.9v4.1h-11.9v10.5h11.9V140h4.1v10h-24.3v-4.1h3.6v-25h-3.6
				V116.8z"/>
			<path class="st8" d="M506.8,128.9h-4.2v-4.5l-3.1-3.2h-7.8l-2.7,2.7v5l2.5,2.6h10.6l5.2,5.4v7.5L502,150h-12.9l-5.3-5.6v-6.4h4.2
				v4.5l3.1,3.2h8.8l2.6-2.7v-4.5l-2.4-2.5h-10.6l-5.2-5.5v-8l5.3-5.6h11.8l5.3,5.6V128.9z"/>
		</g>
	</g>
</g>
</svg>
