<?xml version="1.0" encoding="utf-8"?>
<!-- Generator: Adobe Illustrator 25.4.1, SVG Export Plug-In . SVG Version: 6.00 Build 0)  -->
<svg version="1.1" id="Capa_1" xmlns="http://www.w3.org/2000/svg" xmlns:xlink="http://www.w3.org/1999/xlink" x="0px" y="0px"
	 viewBox="0 0 1368 201" style="enable-background:new 0 0 1368 201;" xml:space="preserve">
<style type="text/css">
	.st0{fill:url(#SVGID_1_);}
	.st1{fill:none;stroke:#000000;stroke-miterlimit:10;}
	.st2{opacity:0.79;fill:#FFFFFF;}
	.st3{font-family:'Rockwell';}
	.st4{font-size:14px;}
	.st5{opacity:0.82;}
	.st6{fill:#FCFCFC;}
	.st7{fill:#FFFFFF;}
</style>
<g id="Capa_2_00000158739413363335625800000018397725429890154909_">
	<g>
		<g>
			<g id="Capa_1-2_00000115516446139224297950000006159577332605890179_">
				
					<linearGradient id="SVGID_1_" gradientUnits="userSpaceOnUse" x1="-4.9" y1="101.5" x2="1368" y2="101.5" gradientTransform="matrix(1 0 0 -1 0 202)">
					<stop  offset="0" style="stop-color:#D50153"/>
					<stop  offset="1" style="stop-color:#EF7747"/>
				</linearGradient>
				<polygon class="st0" points="1368,65.5 1367,200.5 -4.9,200.5 -3.9,0.5 826.7,130.5 				"/>
				<line class="st1" x1="-3.9" y1="0.5" x2="826.7" y2="130.5"/>
				<line class="st1" x1="1368" y1="65.5" x2="826.7" y2="130.5"/>
				<line class="st1" x1="-3.9" y1="0.5" x2="-4.9" y2="200.5"/>
				<line class="st1" x1="-4.9" y1="200.5" x2="1367" y2="200.5"/>
				<line class="st1" x1="1368" y1="65.5" x2="1367" y2="200.5"/>
			</g>
		</g>
	</g>
</g>
<text transform="matrix(1 0 0 1 27.1042 183.6084)" class="st2 st3 st4">© 2022 El Efecto RP , Todos los derechos reservados</text>
<g class="st5">
	<rect x="27.1" y="112" class="st6" width="10.3" height="42"/>
	<rect x="27.1" y="144.4" class="st6" width="26.9" height="9.7"/>
	<rect x="27.1" y="112" class="st6" width="26.9" height="8.1"/>
	<rect x="27.1" y="127.5" class="st6" width="26.9" height="8.1"/>
</g>
<g class="st5">
	<rect x="90.2" y="111.2" class="st6" width="10.3" height="42"/>
	<rect x="90.2" y="144.4" class="st6" width="26.9" height="8.8"/>
	<rect x="90.2" y="111.2" class="st6" width="26.9" height="8.1"/>
	<rect x="90.2" y="126.7" class="st6" width="26.9" height="8.1"/>
</g>
<g class="st5">
	<rect x="123.7" y="111.2" class="st6" width="10.1" height="42"/>
	<rect x="123.7" y="143.9" class="st6" width="27.4" height="9.3"/>
	<rect x="123.7" y="111.2" class="st6" width="27.4" height="8.9"/>
</g>
<g class="st5">
	<rect x="163.9" y="111.6" class="st6" width="10.1" height="42"/>
	<rect x="154.5" y="111.2" class="st6" width="29.5" height="9.8"/>
</g>
<g class="st5">
	<rect x="188.4" y="111.6" class="st6" width="10.1" height="42"/>
	<rect x="188.4" y="144.4" class="st6" width="27.4" height="9.3"/>
	<rect x="188.4" y="111.2" class="st6" width="32.4" height="9.4"/>
	<rect x="210.8" y="111.6" class="st6" width="10.1" height="42"/>
</g>
<g class="st5">
	<rect x="245.6" y="111.8" class="st6" width="10.1" height="42.5"/>
	<rect x="245.6" y="111.6" class="st6" width="27.7" height="8.3"/>
	<rect x="246.4" y="125.8" class="st6" width="26.9" height="8.1"/>
	<path class="st6" d="M276,154.8c-3.6,0-7.2,0-10.8,0c-4-7.7-8.1-15.4-12.1-23.1l8.7-5C266.5,136.1,271.2,145.4,276,154.8z"/>
	<rect x="263.1" y="112.1" class="st6" width="10.1" height="20.6"/>
</g>
<g class="st5">
	<rect x="277.6" y="111.9" class="st6" width="10.1" height="42.5"/>
	<rect x="278.4" y="111.9" class="st6" width="26.9" height="8.2"/>
	<rect x="278.4" y="125.9" class="st6" width="26.9" height="8.1"/>
	<rect x="295.2" y="112.2" class="st6" width="10.1" height="20.6"/>
</g>
<g class="st5">
	<rect x="58.2" y="111.6" class="st7" width="11.3" height="42.7"/>
	<rect x="58.2" y="111.2" class="st7" width="27.3" height="8.8"/>
	<rect x="58.2" y="127.5" class="st7" width="27.3" height="7.6"/>
</g>
</svg>
