<svg xmlns="http://www.w3.org/2000/svg" xmlns:xlink="http://www.w3.org/1999/xlink" viewBox="0 0 1373.9 200.99"><defs><style>.cls-1{fill:url(#Degradado_sin_nombre);}.cls-2{fill:none;stroke:#000;stroke-miterlimit:10;}.cls-3{isolation:isolate;opacity:0.79;font-size:14px;fill:#fff;font-family:Rockwell;}.cls-4{letter-spacing:0.02em;}.cls-5{letter-spacing:-0.08em;}.cls-6{letter-spacing:-0.04em;}.cls-7{letter-spacing:-0.06em;}.cls-8{letter-spacing:-0.05em;}.cls-9{letter-spacing:0.02em;}.cls-10{letter-spacing:-0.02em;}.cls-11{font-size:60px;fill:#efefef;font-family:RaiderCrusader, Raider Crusader;}</style><linearGradient id="Degradado_sin_nombre" x1="0.5" y1="978.49" x2="1373.4" y2="978.49" gradientTransform="translate(0 -878)" gradientUnits="userSpaceOnUse"><stop offset="0" stop-color="#d50153"/><stop offset="1" stop-color="#ef7747"/></linearGradient></defs><g id="Capa_2" data-name="Capa 2"><g id="Capa_1-2" data-name="Capa 1"><g id="Capa_2-2" data-name="Capa 2"><g id="Capa_1-2-2" data-name="Capa 1-2"><polygon class="cls-1" points="1373.4 65.49 1372.4 200.49 0.5 200.49 1.5 0.49 832.1 130.49 1373.4 65.49"/><line class="cls-2" x1="1.5" y1="0.49" x2="832.1" y2="130.49"/><line class="cls-2" x1="1373.4" y1="65.49" x2="832.1" y2="130.49"/><line class="cls-2" x1="1.5" y1="0.49" x2="0.5" y2="200.49"/><line class="cls-2" x1="0.5" y1="200.49" x2="1372.4" y2="200.49"/><line class="cls-2" x1="1373.4" y1="65.49" x2="1372.4" y2="200.49"/></g></g><text class="cls-3" transform="translate(32.5 183.6)">© 2022 Neoli<tspan class="cls-4" x="82.01" y="0">f</tspan><tspan x="86.45" y="0">e RP </tspan><tspan class="cls-5" x="117.95" y="0">,</tspan><tspan class="cls-6" x="120.92" y="0"> </tspan><tspan class="cls-7" x="123.86" y="0">T</tspan><tspan x="131.04" y="0">odos los de</tspan><tspan class="cls-8" x="204.56" y="0">r</tspan><tspan x="209.7" y="0">echos </tspan><tspan class="cls-8" x="250.98" y="0">r</tspan><tspan x="256.12" y="0">ese</tspan><tspan class="cls-9" x="278.58" y="0">r</tspan><tspan class="cls-10" x="284.63" y="0">v</tspan><tspan x="292.01" y="0">ados</tspan></text><text class="cls-11" transform="translate(32.52 132.99)">Reborn Services</text></g></g></svg>