<svg xmlns="http://www.w3.org/2000/svg" xmlns:xlink="http://www.w3.org/1999/xlink" viewBox="0 0 225.78 141.42"><defs><style>.cls-1{fill:url(#Degradado_sin_nombre_32);}.cls-2{fill:#131821;}.cls-3,.cls-4{fill:none;stroke-miterlimit:10;}.cls-3{stroke:#1d1d1b;}.cls-4{stroke:#3c3c3b;}.cls-5{fill:#1f2733;}</style><linearGradient id="Degradado_sin_nombre_32" x1="112.46" y1="82.22" x2="111.76" y2="31.78" gradientUnits="userSpaceOnUse"><stop offset="0" stop-color="#d50053"/><stop offset="1" stop-color="#ef7847"/></linearGradient></defs><g id="Capa_2" data-name="Capa 2"><g id="Capa_1-2" data-name="Capa 1"><path class="cls-1" d="M224.89,127.11a115,115,0,0,0,.89-14.22A112.89,112.89,0,1,0,.89,127.11Z"/></g><g id="Edificios"><rect class="cls-2" x="175.25" y="46.26" width="12.81" height="5.3"/><path class="cls-3" d="M156.18,86.7c-.08,3.76,5.89,6.49,11.55,6.12,4.75-.32,8.86-2.79,8.89-5.88"/><path class="cls-3" d="M155.29,96c8.74-.34,16.42-5,19.78-12.22a21.18,21.18,0,0,0,1.11-14"/><path class="cls-4" d="M155.29,91.82c-.08,3.55-.15,7.11-.22,10.66"/><path class="cls-3" d="M176.4,94c-7.7,8.15-16,11.94-20.67,9.33a6.79,6.79,0,0,1-2.44-2.44"/><rect class="cls-2" x="80.55" y="105" width="38.37" height="23.11"/><rect class="cls-2" x="87.29" y="76.78" width="24.89" height="29.41"/><rect class="cls-2" x="92.92" y="49.41" width="13.63" height="29.41"/><rect class="cls-2" x="98.4" y="21.48" width="2.67" height="29.41"/><rect class="cls-2" x="172.92" y="48.91" width="17.48" height="79.2"/><path class="cls-2" d="M144.18,128.11H122V57.59q11.1,9.34,22.22,18.67Z"/><path class="cls-2" d="M144.88,128.11h13.56V71.22L144.88,86.28Z"/><path class="cls-2" d="M125.79,127.59H113.57c.53-2,1.07-4,1.61-6l10.29-7.06Q125.64,121,125.79,127.59Z"/><path class="cls-2" d="M137.3,127.59h12.22c-.53-2-1.07-4-1.61-6l-10.29-7.06Q137.45,121,137.3,127.59Z"/><path class="cls-5" d="M31.86,86.7l-11,6v37.43h11Z"/><path class="cls-2" d="M31.71,86.7l11,6v37.43h-11Z"/><path class="cls-5" d="M61.75,53.13l-11,10.56v66h11Z"/><path class="cls-2" d="M61.6,53.13l11,10.56v66h-11Z"/><rect class="cls-2" x="69.94" y="68.56" width="5.33" height="61.13"/><rect class="cls-5" x="48.09" y="68.56" width="5.33" height="61.13"/><path class="cls-2" d="M225.78,141.42H.59l.3-14.31h224Z"/><rect class="cls-2" x="196.44" y="92.85" width="14.07" height="37.27"/><rect class="cls-2" x="204.16" y="105" width="18.06" height="24.69"/><rect class="cls-2" x="200.46" y="76.78" width="13.76" height="31.64"/><path class="cls-2" d="M217.56,109.56h-5.12V94l6,11Z"/><rect class="cls-2" x="179.63" y="92.85" width="14.07" height="37.27"/><rect class="cls-2" x="202.01" y="74.22" width="10.66" height="5.58"/><path class="cls-2" d="M15.35,100.65,2.6,88c-.24,1-.46,2.13-.67,3.23a95.72,95.72,0,0,0-1.34,9.52Z"/><path class="cls-2" d="M15.34,100.56H.8A113.93,113.93,0,0,0,1,127.11H15.81Q15.57,113.84,15.34,100.56Z"/></g></g></svg>