<svg xmlns="http://www.w3.org/2000/svg" xmlns:xlink="http://www.w3.org/1999/xlink" viewBox="0 0 118.61 86.77"><defs><style>.cls-1{fill:url(#linear-gradient);}.cls-2{fill:url(#linear-gradient-2);}.cls-3{fill:url(#linear-gradient-3);}.cls-4{fill:url(#linear-gradient-4);}</style><linearGradient id="linear-gradient" x1="33.2" y1="68.7" x2="-3.39" y2="5.32" gradientUnits="userSpaceOnUse"><stop offset="0" stop-color="#a67d12"/><stop offset="1" stop-color="#ffdc73"/></linearGradient><linearGradient id="linear-gradient-2" x1="47.07" y1="88.5" x2="24.09" y2="48.71" xlink:href="#linear-gradient"/><linearGradient id="linear-gradient-3" x1="98.18" y1="87.01" x2="58.48" y2="18.24" xlink:href="#linear-gradient"/><linearGradient id="linear-gradient-4" x1="100.38" y1="55.16" x2="71.61" y2="5.33" xlink:href="#linear-gradient"/></defs><g id="Layer_2" data-name="Layer 2"><g id="logo"><path class="cls-1" d="M1.5,86.77A1.5,1.5,0,0,1,0,85.27V3.36L.94,3A39.8,39.8,0,0,1,25.42,1.15c4.16,1.05,11.89,3,17.49,10.32a28,28,0,0,1,5.42,19.26,1.51,1.51,0,0,1-1.62,1.37,1.49,1.49,0,0,1-1.37-1.62,25.46,25.46,0,0,0-4.81-17.19c-5-6.48-11.77-8.2-15.84-9.23A36.66,36.66,0,0,0,3,5.41V85.27A1.5,1.5,0,0,1,1.5,86.77Z"/><path class="cls-2" d="M49.66,86.77a1.51,1.51,0,0,1-1.15-.53L20.35,52.9A1.5,1.5,0,0,1,22.65,51L50.8,84.3a1.5,1.5,0,0,1-.18,2.12A1.51,1.51,0,0,1,49.66,86.77Z"/><path class="cls-3" d="M89.61,86.77a56.18,56.18,0,0,1-6.92-.48C66.94,84.39,57,73.85,53.42,69.41l-25-31.86a1.5,1.5,0,1,1,2.36-1.85l25,31.85c3.31,4.14,12.62,14,27.26,15.76,4.48.54,16.37,2,24.66-6,8-7.67,11.32-22.7,3.44-32.83-7.32-9.4-20-8.87-21.41-8.78a1.5,1.5,0,1,1-.2-3c1.59-.1,15.71-.69,24,9.93,8.87,11.41,5.23,28.26-3.73,36.84C103.5,85.52,95.59,86.77,89.61,86.77Z"/><path class="cls-4" d="M90.4,60.69h0c-13.73,0-25.65-6.66-31.1-17.26a29,29,0,0,1-2.35-20.32c3.58-13.39,15.93-18.7,19.62-20s13.76-4,23.41,1c7.71,3.94,11.47,10.66,12.88,13.19a35.6,35.6,0,0,1,3.45,8.67,1.5,1.5,0,0,1-2.91.74,32.33,32.33,0,0,0-3.15-7.94c-1.3-2.32-4.73-8.46-11.64-12-8.61-4.4-17.58-2-21-.81S63,11.91,59.84,23.88A26,26,0,0,0,62,42.06c4.94,9.6,15.84,15.59,28.45,15.63a1.5,1.5,0,0,1,0,3Z"/></g></g></svg>